<?xml version="1.0" encoding="iso-8859-1"?>
<!-- Generator: Adobe Illustrator 19.1.0, SVG Export Plug-In . SVG Version: 6.00 Build 0)  -->
<svg version="1.1" id="Capa_1" xmlns="http://www.w3.org/2000/svg" xmlns:xlink="http://www.w3.org/1999/xlink" x="0px" y="0px"
	 viewBox="0 0 63.498 63.498" style="enable-background:new 0 0 63.498 63.498;" xml:space="preserve">
<g>
	<g id="group-97svg">
		<path id="path-1_147_" style="fill:#53ECF4;" d="M54.527,17.993C52.172,9.629,44.488,3.497,35.371,3.497
			c-10.991,0-19.9,8.909-19.9,19.9c0,2.329,1.403,5.538,2.139,7.615l15.617,31.179c0.872,1.741,3.356,1.743,4.231,0.003
			L53.13,31.012l0,0"/>
		<path id="path-2_147_" d="M30.343,63.17c-0.001,0-0.002,0-0.003,0c-1.471,0-2.795-0.906-3.454-2.221L11.269,29.727
			c-0.028-0.056-0.053-0.134-0.073-0.193c-0.133-0.376-0.288-0.798-0.452-1.237c-0.79-2.102-1.773-4.723-1.773-6.894
			c0-11.8,9.6-21.403,21.4-21.403c9.544,0,18.016,6.409,20.6,15.588c0.224,0.797-0.24,1.626-1.038,1.851
			c-0.796,0.222-1.625-0.241-1.851-1.039c-2.22-7.891-9.504-13.403-17.711-13.403c-10.146,0-18.4,8.254-18.4,18.4
			c0,1.627,0.876,3.96,1.58,5.835c0.159,0.423,0.31,0.823,0.442,1.19l15.575,31.097c0.217,0.431,0.614,0.478,0.774,0.478
			c0.001,0,0.001,0,0.001,0c0.161,0,0.559-0.047,0.776-0.477L46.79,28.338c0.372-0.74,1.272-1.042,2.014-0.666
			c0.74,0.372,1.038,1.274,0.666,2.014L33.798,60.953C33.138,62.268,31.814,63.17,30.343,63.17z"/>
		<path id="path-3_146_" d="M30.477,34.868c-0.456,0-0.888-0.207-1.172-0.563l-7.934-9.935c-0.518-0.647-0.412-1.591,0.235-2.108
			c0.647-0.516,1.593-0.41,2.108,0.235l6.763,8.468l6.763-8.468c0.516-0.646,1.458-0.752,2.108-0.235
			c0.647,0.517,0.753,1.461,0.235,2.108l-7.934,9.935C31.365,34.661,30.933,34.868,30.477,34.868z"/>
		<path id="path-4_141_" d="M30.167,33.67c-0.828,0-1.5-0.672-1.5-1.5v-21c0-0.828,0.672-1.5,1.5-1.5c0.829,0,1.5,0.672,1.5,1.5v21
			C31.667,32.998,30.996,33.67,30.167,33.67z"/>
	</g>
</g>
<g>
</g>
<g>
</g>
<g>
</g>
<g>
</g>
<g>
</g>
<g>
</g>
<g>
</g>
<g>
</g>
<g>
</g>
<g>
</g>
<g>
</g>
<g>
</g>
<g>
</g>
<g>
</g>
<g>
</g>
</svg>
